<?xml version="1.0" encoding="UTF-8" standalone="no"?>
<!-- Created with Inkscape (http://www.inkscape.org/) -->

<svg
   xmlns:dc="http://purl.org/dc/elements/1.1/"
   xmlns:cc="http://creativecommons.org/ns#"
   xmlns:rdf="http://www.w3.org/1999/02/22-rdf-syntax-ns#"
   xmlns:svg="http://www.w3.org/2000/svg"
   xmlns="http://www.w3.org/2000/svg"
   version="1.2"
   width="800"
   height="800"
   id="svg6007">
  <defs
     id="defs6009" />
  <metadata
     id="metadata6012">
    <rdf:RDF>
      <cc:Work
         rdf:about="">
        <dc:format>image/svg+xml</dc:format>
        <dc:type
           rdf:resource="http://purl.org/dc/dcmitype/StillImage" />
        <dc:title></dc:title>
      </cc:Work>
    </rdf:RDF>
  </metadata>
  <g
     transform="translate(0,-400)"
     id="layer1">
    <g
       transform="translate(-52.083333,306.25)"
       id="g3316">
      <path
         d="m 150.11424,451.57135 c 43.98028,-21.16236 221.5278,-31.51671 221.5278,-31.51671 l 162.50231,-0.18218 c 0,0 172.60944,10.20576 215.69812,30.97018 43.08868,20.76442 50.28099,47.36263 50.28099,47.36263 l -700.290205,0.73952 c 0,0 6.300705,-26.21108 50.280985,-47.37344 z"
         id="rect6043"
         style="fill:#999999;fill-opacity:1;stroke:#999999;stroke-width:1.24492848;stroke-linecap:round;stroke-miterlimit:4;stroke-opacity:1;stroke-dashoffset:7.79999799" />
      <path
         d="m 99.833255,499.5237 c 233.430065,-0.0817 466.860135,-0.16333 700.290205,-0.24499 -88.6597,17.17513 -212.29748,11.36174 -265.97911,51.52538 -54.51199,0.16124 -109.02399,0.32248 -163.53598,0.48372 C 313.87065,510.71439 190.09163,516.7784 99.833255,499.5237 z"
         id="rect6045"
         style="fill:#4d4d4d;stroke:#4d4d4d;stroke-width:1.41757047;stroke-linecap:round;stroke-miterlimit:4;stroke-opacity:1;stroke-dashoffset:7.79999799" />
      <path
         d="m 449.64632,381.04074 c 80.99659,0.0362 80.97817,39.35244 80.97817,39.35244 l -159.10614,0 c 0,0 -0.57634,-39.3876 78.12797,-39.35244 z"
         id="rect6047"
         style="fill:#40828a;fill-opacity:1;stroke:#40828a;stroke-width:0.47740337;stroke-linecap:round;stroke-miterlimit:4;stroke-opacity:1;stroke-dashoffset:7.79999799" />
      <path
         d="m 369.47786,551.56664 c 66.43741,-11.793 115.74846,-6.45964 165.41654,-1.48331 L 545.36976,607.12 C 472.57117,549.30807 427.33714,549.68045 360.0025,607.117 z"
         id="rect6049"
         style="fill:#666666;stroke:#666666;stroke-width:0.28500971;stroke-linecap:round;stroke-miterlimit:4;stroke-opacity:1;stroke-dashoffset:7.79999799" />
      <path
         d="m 147.76408,490.63481 c 44.02878,-3.04622 221.77212,-6.62 221.77212,-6.62 0,0 108.1521,-8.21144 172.05653,-7.31787 63.90443,0.89357 167.59147,11.88574 210.72767,14.87467 43.13621,2.98893 46.47562,6.8176 46.47562,6.8176 L 100.569,497.97755 c 0,0 3.16629,-4.29651 47.19508,-7.34272 z"
         id="path16921"
         style="fill:#cccccc;fill-opacity:1;stroke:#cccccc;stroke-width:0.47258696;stroke-linecap:round;stroke-miterlimit:4;stroke-opacity:1;stroke-dashoffset:7.79999799" />
      <path
         d="m 152.14012,450.6791 c 29.92382,-16.27906 61.73746,-8.14699 156.0809,-13.50567 43.30937,-0.23518 72.42402,1.45804 72.42402,1.45804 -176.46172,8.72269 -178.66834,-2.81871 -271.98571,43.58904 13.90794,-16.13598 24.92502,-22.31816 43.48079,-31.54141 z"
         id="path16927"
         style="fill:#666666;fill-opacity:1;stroke:#666666;stroke-width:0.54139858;stroke-linecap:round;stroke-miterlimit:4;stroke-opacity:1;stroke-dashoffset:7.79999799" />
      <path
         d="m 229.27871,434.52458 c 44.02446,-3.99828 150.91702,-8.0379 150.91702,-8.0379 l 162.66557,-0.0344 c 0,0 71.74117,1.92821 114.87314,5.85131 43.13197,3.9231 50.33151,8.9484 50.33151,8.9484 -176.37291,-1.58595 -352.74583,-13.71969 -529.11874,2.22305 0,0 6.30703,-4.95216 50.3315,-8.95044 z"
         id="path16923"
         style="fill:#cccccc;fill-opacity:1;stroke:#cccccc;stroke-width:0.54139858;stroke-linecap:round;stroke-miterlimit:4;stroke-opacity:1;stroke-dashoffset:7.79999799" />
      <path
         d="m 478.41149,383.04209 c 45.00597,6.78729 49.59513,27.95965 50.64751,29.97472 1.05238,2.01508 -86.59646,-34.9472 -122.22381,-22.44978 0,0.31447 18.87835,-15.47224 71.5763,-7.52494 z"
         id="path17517"
         style="fill:#93bbbf;fill-opacity:1;stroke:#93bbbf;stroke-width:0.29120949;stroke-linecap:round;stroke-miterlimit:4;stroke-opacity:1;stroke-dashoffset:7.79999799" />
      <path
         d="m 370.22854,551.91315 c 54.6414,-5.25263 109.28281,-4.75036 163.92421,-1.41776 l 10.38085,54.51613 c -72.14183,-55.25712 -116.96776,-54.9012 -183.69493,-0.003 z"
         id="path17547"
         style="fill:none;stroke:#4d4d4d;stroke-width:0.87591094;stroke-linecap:round;stroke-miterlimit:4;stroke-opacity:1;stroke-dasharray:0.87591099, 2.62773292;stroke-dashoffset:0" />
      <path
         d="m 286.57503,522.4015 c 233.62268,-0.0286 93.11846,-0.11583 326.74115,-0.14443 -46.86733,7.86959 -74.78501,20.39801 -79.61649,28.5989 -12.67299,-35.6532 -36.29973,-34.8632 -163.61663,1.0609 -21.34736,-15.34969 -56.28736,-24.55617 -83.50803,-29.51538 58.1025,0 0,1e-5 0,1e-5 z"
         id="path17597"
         style="opacity:0.65;fill:#333333;stroke:#333333;stroke-width:0.83971059;stroke-linecap:round;stroke-miterlimit:4;stroke-opacity:1;stroke-dashoffset:7.79999799" />
      <path
         d="m 99.37324,498.84884 c 233.73674,-0.0101 467.47349,-0.0201 701.21024,-0.0301 -234.64128,7.92012 -490.90446,4.69414 -701.21024,0.0301 z"
         id="path17599"
         style="fill:#333333;stroke:#333333;stroke-width:0.49754044;stroke-linecap:round;stroke-miterlimit:4;stroke-opacity:1;stroke-dashoffset:7.79999799" />
    </g>
  </g>
</svg>
